<svg xmlns="http://www.w3.org/2000/svg" xmlns:xlink="http://www.w3.org/1999/xlink" width="20" height="20" viewBox="0 0 20 20"><defs><style>.a{fill:#d9b8b8;}.b{clip-path:url(#a);}.c{fill:#fff;}</style><clipPath id="a"><circle class="a" cx="10" cy="10" r="10" transform="translate(1282 1065)"/></clipPath></defs><g class="b" transform="translate(-1282 -1065)"><g transform="translate(1284.249 1067.768)"><path class="c" d="M12.5,1.808H10.011V1.356A1.356,1.356,0,0,0,8.655,0H6.847A1.356,1.356,0,0,0,5.491,1.356v.452H3.005a1.13,1.13,0,0,0-1.13,1.13v.9a.452.452,0,0,0,.452.452H13.175a.452.452,0,0,0,.452-.452v-.9A1.13,1.13,0,0,0,12.5,1.808ZM6.4,1.356A.453.453,0,0,1,6.847.9H8.655a.453.453,0,0,1,.452.452v.452H6.4Z"/><path class="c" d="M3.007,7.188a.141.141,0,0,0-.141.148l.373,7.827a1.354,1.354,0,0,0,1.354,1.292h6.864a1.354,1.354,0,0,0,1.354-1.292l.373-7.827a.141.141,0,0,0-.141-.148Zm6.826,1.13a.452.452,0,0,1,.9,0v5.876a.452.452,0,0,1-.9,0Zm-2.26,0a.452.452,0,0,1,.9,0v5.876a.452.452,0,0,1-.9,0Zm-2.26,0a.452.452,0,0,1,.9,0v5.876a.452.452,0,0,1-.9,0Z" transform="translate(-0.274 -1.989)"/></g></g></svg>