<svg xmlns="http://www.w3.org/2000/svg" xmlns:xlink="http://www.w3.org/1999/xlink" width="40" height="40" viewBox="0 0 40 40"><defs><style>.a{fill:#8e8248;}.b{fill:#ffd500;}.c{clip-path:url(#a);}</style><clipPath id="a"><circle class="a" cx="13" cy="13" r="13" transform="translate(784 275)"/></clipPath></defs><g transform="translate(-777 -268)"><circle class="b" cx="20" cy="20" r="20" transform="translate(777 268)"/><g class="c"><g transform="translate(787.358 276.82)"><circle cx="3.051" cy="3.051" r="3.051" transform="translate(6.591 8.636)"/><path d="M15.9,3.965l-.195-.975A1.133,1.133,0,0,0,14.6,2.082H8.3a1.133,1.133,0,0,0-1.108.908l-.195.975Z" transform="translate(-1.806)"/><path d="M17.59,6.145H1.695A1.7,1.7,0,0,0,0,7.839v9.793a1.7,1.7,0,0,0,1.695,1.695H17.59a1.7,1.7,0,0,0,1.695-1.695V7.839A1.7,1.7,0,0,0,17.59,6.145ZM4.821,9.685H3.013a.565.565,0,1,1,0-1.13H4.821a.565.565,0,0,1,0,1.13Zm4.821,7.232a4.181,4.181,0,1,1,4.181-4.181A4.186,4.186,0,0,1,9.642,16.917Z" transform="translate(0 -1.049)"/></g></g></g></svg>