<svg xmlns="http://www.w3.org/2000/svg" xmlns:xlink="http://www.w3.org/1999/xlink" width="29" height="29" viewBox="0 0 29 29"><defs><style>.a{fill:#fff;}.b{clip-path:url(#a);}</style><clipPath id="a"><rect class="a" width="29" height="29" transform="translate(776.063 617.672)"/></clipPath></defs><g class="b" transform="translate(-776.063 -617.672)"><g transform="translate(776.063 617.672)"><path class="a" d="M17.526,2.768V9.143a4.15,4.15,0,0,0,.129,1.214.9.9,0,0,0,.955.6,2.327,2.327,0,0,0,1.667-1v.89H21.75V2.768H20.277V8.933q-.486.7-.922.7c-.194,0-.308-.118-.34-.356A4.222,4.222,0,0,1,19,8.707V2.768Z"/><path class="a" d="M14.16,10.956a1.991,1.991,0,0,0,1.715-.825,3.19,3.19,0,0,0,.453-1.91V5.389A3.155,3.155,0,0,0,15.876,3.5,1.99,1.99,0,0,0,14.16,2.67a2,2,0,0,0-1.7.826,3.156,3.156,0,0,0-.453,1.893V8.221a3.233,3.233,0,0,0,.453,1.91A2,2,0,0,0,14.16,10.956Zm-.7-5.858q0-1.116.7-1.116t.7,1.116V8.5q0,1.133-.7,1.133t-.7-1.133Z"/><path class="a" d="M10.034,10.843V6.457L11.992,0H10.341l-1.1,4.256L8.091,0H6.376q.453,1.36,1.052,3.026a27.5,27.5,0,0,1,.987,3.431v4.385h1.618Z"/><path class="a" d="M25.14,13.383a2.968,2.968,0,0,0-1.659-.761Q20.5,12.3,14.5,12.3t-8.965.324a2.94,2.94,0,0,0-1.667.761,3.077,3.077,0,0,0-.939,1.6,28.022,28.022,0,0,0-.421,5.664,27.472,27.472,0,0,0,.421,5.664,2.959,2.959,0,0,0,.93,1.6,2.868,2.868,0,0,0,1.659.745A86.646,86.646,0,0,0,14.5,29a86.641,86.641,0,0,0,8.981-.339,2.832,2.832,0,0,0,1.651-.745,3.079,3.079,0,0,0,.939-1.6,28.051,28.051,0,0,0,.421-5.664,27.472,27.472,0,0,0-.421-5.664A2.964,2.964,0,0,0,25.14,13.383ZM9.354,16.62H7.622v9.208H6V16.62h-1.7V15.1H9.354V16.62Zm4.369,9.208h-1.44v-.874a2.37,2.37,0,0,1-1.651.988.872.872,0,0,1-.939-.6,4,4,0,0,1-.129-1.182V17.833H11v5.891a4.483,4.483,0,0,0,.016.566q.049.339.34.339.437,0,.923-.68V17.833h1.44v7.995h0Zm5.5-2.4a5.944,5.944,0,0,1-.146,1.618,1.12,1.12,0,0,1-1.149.89,2.009,2.009,0,0,1-1.5-.89v.777h-1.44V15.1h1.44V18.61a1.949,1.949,0,0,1,1.5-.874,1.124,1.124,0,0,1,1.149.906,5.757,5.757,0,0,1,.146,1.6Zm5.47-1.327H21.8v1.408q0,1.117.744,1.116a.619.619,0,0,0,.647-.582,8.056,8.056,0,0,0,.032-.988H24.7v.211a7.085,7.085,0,0,1-.033.939,2,2,0,0,1-2.087,1.732,2.076,2.076,0,0,1-1.748-.826,3.037,3.037,0,0,1-.469-1.877v-2.8a3.124,3.124,0,0,1,.453-1.878,2.213,2.213,0,0,1,3.447,0,3.214,3.214,0,0,1,.437,1.878v1.667Z"/><path class="a" d="M22.527,19.047q-.728,0-.728,1.1v.745h1.457v-.745Q23.255,19.048,22.527,19.047Z"/><path class="a" d="M17.154,19.047a1.037,1.037,0,0,0-.728.357v4.871a1.036,1.036,0,0,0,.728.356q.631,0,.631-1.084V20.132Q17.785,19.047,17.154,19.047Z"/></g></g></svg>